<?xml version="1.0" encoding="utf-8"?>
<!-- Generator: Adobe Illustrator 21.1.0, SVG Export Plug-In . SVG Version: 6.00 Build 0)  -->
<svg version="1.1" id="Layer_1" xmlns="http://www.w3.org/2000/svg" xmlns:xlink="http://www.w3.org/1999/xlink" x="0px" y="0px"
	 viewBox="0 0 171.7 131.6" style="enable-background:new 0 0 171.7 131.6;" xml:space="preserve">
<style type="text/css">
	.st0{display:none;}
	.st1{display:inline;fill:#010101;}
	.st2{display:none;fill:#010101;}
	.st3{display:inline;fill:#020202;}
	.st4{font-family:'Gotham-Medium';}
	.st5{font-size:18px;}
	.st6{letter-spacing:1;}
	.st7{fill:#E6E7E8;}
</style>
<g id="XMLID_208_" class="st0">
	<path id="XMLID_220_" class="st1" d="M-34.3,81.5v5H-40v-5h-2.4v11.2h2.3v-5.2h5.7v4.1c0,0.3,0.1,0.5,0.2,0.7
		c0.1,0.2,0.2,0.3,0.4,0.4c0.2,0.1,0.3,0.2,0.5,0.2h0.5h1V81.5H-34.3z"/>
	<path id="XMLID_219_" class="st1" d="M11.3,92.7V81.5H9l-4.6,8.4l-4.7-8.4h-2.3v11.2h1.1V84l4.9,8.8H4l4.8-8.7v7.4
		c0,0.3,0.1,0.5,0.2,0.7c0.1,0.2,0.2,0.3,0.4,0.4c0.2,0.1,0.3,0.2,0.5,0.2h0.5H11.3z"/>
	<path id="XMLID_218_" class="st1" d="M25.8,92.7L20,81.2h-0.7l-6,11.5h1.3l1.8-3.6h4.2L20.2,88h-3l2-3.8l3.8,7.6
		c0.2,0.3,0.4,0.6,0.6,0.7c0.2,0.2,0.5,0.2,0.9,0.2L25.8,92.7L25.8,92.7z"/>
	<path id="XMLID_217_" class="st1" d="M38,81.5h-0.2c-0.1,0-0.2,0-0.2,0.1c-0.1,0.1-0.2,0.1-0.2,0.2c-0.1,0.1-0.1,0.2-0.1,0.3v7.2
		l-7.8-7.9H28v11.3h1.3v-8.5l7.9,8.2c0.3,0.3,0.8,0.3,1.1,0.3h0.2V81.5H38z"/>
	<path id="XMLID_216_" class="st1" d="M-23.1,81.2h-0.7l-6,11.5h1.3l4.4-8.6l1.9,3.8h-3l-0.6,1.1h4.3l1.3,2.7
		c0.2,0.3,0.4,0.6,0.6,0.7c0.2,0.2,0.5,0.2,0.9,0.2h1.4L-23.1,81.2z"/>
	<path id="XMLID_213_" class="st1" d="M-8.1,91.9l-3.4-4.3h-1.2v5.1h-2.3V81.5h4.3c0,0,1.8,0,3,0.6c1.1,0.6,1.6,1.4,1.6,2.5
		s-0.6,2.3-2.9,2.9l4.5,5.4h-1.8c0,0-0.4,0-0.9-0.2C-7.7,92.5-8.1,91.9-8.1,91.9 M-12.8,82.5v4.3h1c0,0,1,0,1.8-0.4
		c0.7-0.4,1.1-1,1.1-1.8s-0.6-1.6-1.2-1.9c0,0-0.5-0.2-1.2-0.2H-12.8z"/>
	<path id="XMLID_210_" class="st1" d="M-51.6,87.5h0.4v2.2c0.4-0.4,0.7-0.6,1.1-0.6c0.9,0,1.4,0.7,1.4,1.6c0,1.1-0.8,1.8-1.8,1.8
		c-0.4,0-0.7-0.1-1.1-0.3V87.5z M-51.3,92.1c0.3,0.1,0.6,0.2,0.8,0.2c0.9,0,1.4-0.6,1.4-1.4c0-0.8-0.5-1.3-1.1-1.3
		c-0.4,0-0.8,0.2-1.1,0.7L-51.3,92.1L-51.3,92.1z"/>
	<polygon id="XMLID_209_" class="st1" points="-47.6,94.2 -47.9,94.2 -46.8,91.9 -48.1,89.2 -47.8,89.2 -46.6,91.5 -45.5,89.2 
		-45.2,89.2 	"/>
</g>
<path id="XMLID_197_" class="st2" d="M-3.9,26.1h-2.8v10.5h2.8c1.9,0,2.3-0.3,2.3-5.1C-1.6,26.5-2.1,26.1-3.9,26.1 M-3.6,39.1h-3.1
	v12.5h3.1c2,0,2-1.3,2-6.2C-1.6,40.6-1.6,39.1-3.6,39.1 M-51.9,75.9h90.5V1.6h-90.5V75.9z M-23.9,23.2l-4.8,10.8l-4.8-10.8H-23.9z
	 M-28.6,35.1c1.6,0,3,1.3,3,3c0,1.6-1.3,3-3,3c-1.6,0-3-1.3-3-3C-31.6,36.4-30.2,35.1-28.6,35.1 M-15.7,48.8c0,3-2,5.9-7.7,5.9
	s-7.7-3.6-7.7-5.9v-4.5h5.1v5.4c0,1.4,1.1,2.7,2.7,2.7c1.4,0,2.7-1.2,2.7-2.7V23.2h5.1v25.6H-15.7z M3.6,33.5c0,1.5-1.3,4.3-3.3,4.3
	c2,0,3.3,1.7,3.3,3v9.3c0,1.6-1.2,4.1-5.1,4.1h-10.2V23.2h10.2c2,0,5.1,1.6,5.1,5V33.5z M22.8,54.2H7.3v-31h5.1v26.6
	c0,1.4,1.1,2.7,2.7,2.7c1.4,0,2.7-1.1,2.7-2.7v-5.4h5.1L22.8,54.2L22.8,54.2z"/>
<g id="XMLID_194_" class="st0">
	<text transform="matrix(1 0 0 1 -52.9244 123.0351)" class="st3 st4 st5 st6">SOUNDBOOST 2</text>
</g>
<g id="XMLID_9_">
	<g id="XMLID_1092_">
		<path id="XMLID_1104_" class="st7" d="M21.7,86.5v5h-5.7v-5h-2.4v11.2h2.3v-5.2h5.7v4.1c0,0.3,0.1,0.5,0.2,0.7
			c0.1,0.2,0.2,0.3,0.4,0.4c0.2,0.1,0.3,0.2,0.5,0.2h0.5h1V86.5H21.7z"/>
		<path id="XMLID_1103_" class="st7" d="M67.2,97.7V86.5H65l-4.6,8.4l-4.7-8.4h-2.3v11.2h1.1V89l4.9,8.8H60l4.8-8.7v7.4
			c0,0.3,0.1,0.5,0.2,0.7c0.1,0.2,0.2,0.3,0.4,0.4c0.2,0.1,0.3,0.2,0.5,0.2h0.5H67.2z"/>
		<path id="XMLID_1102_" class="st7" d="M81.8,97.7L76,86.2h-0.7l-6,11.5h1.3l1.8-3.6h4.2L76.2,93h-3l2-3.8l3.8,7.6
			c0.2,0.3,0.4,0.6,0.6,0.7c0.2,0.2,0.5,0.2,0.9,0.2L81.8,97.7L81.8,97.7z"/>
		<path id="XMLID_1101_" class="st7" d="M94,86.5h-0.2c-0.1,0-0.2,0-0.2,0.1c-0.1,0.1-0.2,0.1-0.2,0.2c-0.1,0.1-0.1,0.2-0.1,0.3v7.2
			l-7.8-7.9H84v11.3h1.3v-8.5l7.9,8.2c0.3,0.3,0.8,0.3,1.1,0.3h0.2V86.5H94z"/>
		<path id="XMLID_1100_" class="st7" d="M32.9,86.2h-0.7l-6,11.5h1.3l4.4-8.6l1.9,3.8h-3l-0.6,1.1h4.3l1.3,2.7
			c0.2,0.3,0.4,0.6,0.6,0.7c0.2,0.2,0.5,0.2,0.9,0.2h1.4L32.9,86.2z"/>
		<path id="XMLID_1097_" class="st7" d="M47.8,96.9l-3.4-4.3h-1.2v5.1h-2.3V86.5h4.3c0,0,1.8,0,3,0.6c1.1,0.6,1.6,1.4,1.6,2.5
			s-0.6,2.3-2.9,2.9l4.5,5.4h-1.8c0,0-0.4,0-0.9-0.2C48.3,97.5,47.8,96.9,47.8,96.9 M43.2,87.5v4.3h1c0,0,1,0,1.8-0.4
			c0.7-0.4,1.1-1,1.1-1.8s-0.6-1.6-1.2-1.9c0,0-0.5-0.2-1.2-0.2H43.2z"/>
		<path id="XMLID_1094_" class="st7" d="M4.3,92.5h0.4v2.2c0.4-0.4,0.7-0.6,1.1-0.6c0.9,0,1.4,0.7,1.4,1.6c0,1.1-0.8,1.8-1.8,1.8
			c-0.4,0-0.7-0.1-1.1-0.3V92.5z M4.7,97.1c0.3,0.1,0.6,0.2,0.8,0.2c0.9,0,1.4-0.6,1.4-1.4c0-0.8-0.5-1.3-1.1-1.3
			c-0.4,0-0.8,0.2-1.1,0.7L4.7,97.1L4.7,97.1z"/>
		<polygon id="XMLID_1093_" class="st7" points="8.4,99.2 8,99.2 9.2,96.9 7.9,94.2 8.1,94.2 9.4,96.5 10.5,94.2 10.8,94.2 		"/>
	</g>
	<path id="XMLID_1083_" class="st7" d="M52.4,27.8h-2.8v10.5h2.8c1.9,0,2.3-0.3,2.3-5.1C54.7,28.2,54.2,27.8,52.4,27.8 M52.7,40.8
		h-3.1v12.5h3.1c2,0,2-1.3,2-6.2C54.7,42.2,54.7,40.8,52.7,40.8 M4.3,77.6h90.5V3.3H4.3V77.6z M32.4,24.8l-4.8,10.8l-4.8-10.8H32.4z
		 M27.6,36.7c1.6,0,3,1.3,3,3c0,1.6-1.3,3-3,3c-1.6,0-3-1.3-3-3C24.7,38.1,26,36.7,27.6,36.7 M40.6,50.4c0,3-2,5.9-7.7,5.9
		s-7.7-3.6-7.7-5.9V46h5.1v5.4c0,1.4,1.1,2.7,2.7,2.7c1.4,0,2.7-1.2,2.7-2.7V24.8h5.1v25.6H40.6z M59.8,35.2c0,1.5-1.3,4.3-3.3,4.3
		c2,0,3.3,1.7,3.3,3v9.3c0,1.6-1.2,4.1-5.1,4.1H44.5V24.8h10.2c2,0,5.1,1.6,5.1,5V35.2z M79,55.9H63.5v-31h5.1v26.6
		c0,1.4,1.1,2.7,2.7,2.7c1.4,0,2.7-1.1,2.7-2.7V46h5.1L79,55.9L79,55.9z"/>
	<g id="XMLID_3246_">
		<g>
			<path id="XMLID_249_" class="st7" d="M10,120.7c2.7,0.6,4.1,1.6,4.1,3.7c0,2.4-1.9,3.8-4.5,3.8c-1.9,0-3.7-0.7-5.3-2l1.3-1.6
				c1.2,1,2.4,1.6,4,1.6c1.4,0,2.2-0.6,2.2-1.6c0-0.9-0.5-1.4-2.8-1.9c-2.7-0.6-4.2-1.4-4.2-3.8c0-2.2,1.8-3.7,4.3-3.7
				c1.8,0,3.3,0.6,4.6,1.6l-1.2,1.7c-1.1-0.8-2.3-1.3-3.4-1.3c-1.3,0-2.1,0.7-2.1,1.5C7,119.7,7.6,120.1,10,120.7z"/>
			<path id="XMLID_246_" class="st7" d="M23.9,128.3c-3.9,0-6.6-2.9-6.6-6.5c0-3.6,2.7-6.5,6.6-6.5s6.6,2.9,6.6,6.5
				S27.8,128.3,23.9,128.3z M23.9,117.2c-2.5,0-4.2,2-4.2,4.5s1.8,4.5,4.3,4.5c2.5,0,4.2-2,4.2-4.5S26.4,117.2,23.9,117.2z"/>
			<path id="XMLID_244_" class="st7" d="M44.9,122.6c0,3.8-2.1,5.7-5.4,5.7c-3.3,0-5.4-1.9-5.4-5.5v-7.3h2.2v7.2
				c0,2.3,1.2,3.6,3.2,3.6c2,0,3.2-1.2,3.2-3.5v-7.3h2.2V122.6z"/>
			<path id="XMLID_242_" class="st7" d="M57.9,115.4h2.2V128h-1.9l-7-9v9h-2.2v-12.6h2.1l6.8,8.7V115.4z"/>
			<path id="XMLID_239_" class="st7" d="M69.2,128h-4.7v-12.6h4.7c4,0,6.7,2.7,6.7,6.3S73.2,128,69.2,128z M69.2,117.4h-2.5v8.6h2.5
				c2.6,0,4.4-1.8,4.4-4.3S71.9,117.4,69.2,117.4z"/>
			<path id="XMLID_235_" class="st7" d="M89.6,118.7c0,1.5-0.9,2.3-1.8,2.8c1.5,0.5,2.5,1.3,2.5,3.1c0,2.3-1.9,3.5-4.7,3.5h-5.8
				v-12.6h5.7C88,115.4,89.6,116.7,89.6,118.7z M87.3,119c0-1-0.8-1.6-2.2-1.6h-3.2v3.3h3C86.4,120.7,87.3,120.2,87.3,119z
				 M88.1,124.3c0-1.1-0.8-1.7-2.6-1.7h-3.5v3.5h3.7C87.1,126.1,88.1,125.5,88.1,124.3z"/>
			<path id="XMLID_232_" class="st7" d="M99.9,128.3c-3.9,0-6.6-2.9-6.6-6.5c0-3.6,2.7-6.5,6.6-6.5s6.6,2.9,6.6,6.5
				S103.8,128.3,99.9,128.3z M99.9,117.2c-2.5,0-4.2,2-4.2,4.5s1.8,4.5,4.3,4.5c2.5,0,4.2-2,4.2-4.5S102.4,117.2,99.9,117.2z"/>
			<path id="XMLID_229_" class="st7" d="M116.4,128.3c-3.9,0-6.6-2.9-6.6-6.5c0-3.6,2.7-6.5,6.6-6.5s6.6,2.9,6.6,6.5
				S120.3,128.3,116.4,128.3z M116.4,117.2c-2.5,0-4.2,2-4.2,4.5s1.8,4.5,4.3,4.5c2.5,0,4.2-2,4.2-4.5S118.9,117.2,116.4,117.2z"/>
			<path id="XMLID_227_" class="st7" d="M131.7,120.7c2.7,0.6,4.1,1.6,4.1,3.7c0,2.4-1.9,3.8-4.5,3.8c-1.9,0-3.7-0.7-5.3-2l1.3-1.6
				c1.2,1,2.4,1.6,4,1.6c1.4,0,2.2-0.6,2.2-1.6c0-0.9-0.5-1.4-2.8-1.9c-2.7-0.6-4.2-1.4-4.2-3.8c0-2.2,1.8-3.7,4.3-3.7
				c1.8,0,3.3,0.6,4.6,1.6l-1.2,1.7c-1.1-0.8-2.3-1.3-3.4-1.3c-1.3,0-2.1,0.7-2.1,1.5C128.7,119.7,129.3,120.1,131.7,120.7z"/>
			<path id="XMLID_225_" class="st7" d="M144.9,128h-2.2v-10.6h-4v-2.1h10.2v2.1h-4V128z"/>
			<path id="XMLID_223_" class="st7" d="M160,119.1l-1.6-1.2c1.2-1.7,2.4-2.6,4.6-2.6c2.5,0,4.2,1.5,4.2,3.8c0,2-1,3.1-3.3,4.9
				l-2.6,2.2h6v1.9h-9.1v-1.7l4.3-3.7c1.7-1.5,2.4-2.3,2.4-3.4c0-1.2-0.9-2-2-2S160.9,117.9,160,119.1z"/>
		</g>
	</g>
</g>
</svg>
